<svg xmlns="http://www.w3.org/2000/svg" viewBox="0 0 512 512" fill="none" stroke="black" stroke-width="1.4" stroke-linecap="round" stroke-linejoin="round">
<rect x="48.00" y="380.00" width="416.00" height="28.00" />
<line x1="48.00" y1="380.00" x2="60.00" y2="408.00" />
<line x1="60.00" y1="380.00" x2="72.00" y2="408.00" />
<line x1="72.00" y1="380.00" x2="84.00" y2="408.00" />
<line x1="84.00" y1="380.00" x2="96.00" y2="408.00" />
<line x1="96.00" y1="380.00" x2="108.00" y2="408.00" />
<line x1="108.00" y1="380.00" x2="120.00" y2="408.00" />
<line x1="120.00" y1="380.00" x2="132.00" y2="408.00" />
<line x1="132.00" y1="380.00" x2="144.00" y2="408.00" />
<line x1="144.00" y1="380.00" x2="156.00" y2="408.00" />
<line x1="156.00" y1="380.00" x2="168.00" y2="408.00" />
<line x1="168.00" y1="380.00" x2="180.00" y2="408.00" />
<line x1="180.00" y1="380.00" x2="192.00" y2="408.00" />
<line x1="192.00" y1="380.00" x2="204.00" y2="408.00" />
<line x1="204.00" y1="380.00" x2="216.00" y2="408.00" />
<line x1="216.00" y1="380.00" x2="228.00" y2="408.00" />
<line x1="228.00" y1="380.00" x2="240.00" y2="408.00" />
<line x1="240.00" y1="380.00" x2="252.00" y2="408.00" />
<line x1="252.00" y1="380.00" x2="264.00" y2="408.00" />
<line x1="264.00" y1="380.00" x2="276.00" y2="408.00" />
<line x1="276.00" y1="380.00" x2="288.00" y2="408.00" />
<line x1="288.00" y1="380.00" x2="300.00" y2="408.00" />
<line x1="300.00" y1="380.00" x2="312.00" y2="408.00" />
<line x1="312.00" y1="380.00" x2="324.00" y2="408.00" />
<line x1="324.00" y1="380.00" x2="336.00" y2="408.00" />
<line x1="336.00" y1="380.00" x2="348.00" y2="408.00" />
<line x1="348.00" y1="380.00" x2="360.00" y2="408.00" />
<line x1="360.00" y1="380.00" x2="372.00" y2="408.00" />
<line x1="372.00" y1="380.00" x2="384.00" y2="408.00" />
<line x1="384.00" y1="380.00" x2="396.00" y2="408.00" />
<line x1="396.00" y1="380.00" x2="408.00" y2="408.00" />
<line x1="408.00" y1="380.00" x2="420.00" y2="408.00" />
<line x1="420.00" y1="380.00" x2="432.00" y2="408.00" />
<line x1="432.00" y1="380.00" x2="444.00" y2="408.00" />
<line x1="444.00" y1="380.00" x2="456.00" y2="408.00" />
<line x1="456.00" y1="380.00" x2="468.00" y2="408.00" />
<rect x="64.00" y="96.00" width="22.00" height="284.00" />
<rect x="426.00" y="96.00" width="22.00" height="284.00" />
<polygon points="48.00,80.00 464.00,80.00 440.00,96.00 72.00,96.00" />
<rect x="86.00" y="220.00" width="340.00" height="14.00" />
<line x1="86.00" y1="220.00" x2="96.00" y2="234.00" />
<line x1="96.00" y1="220.00" x2="106.00" y2="234.00" />
<line x1="106.00" y1="220.00" x2="116.00" y2="234.00" />
<line x1="116.00" y1="220.00" x2="126.00" y2="234.00" />
<line x1="126.00" y1="220.00" x2="136.00" y2="234.00" />
<line x1="136.00" y1="220.00" x2="146.00" y2="234.00" />
<line x1="146.00" y1="220.00" x2="156.00" y2="234.00" />
<line x1="156.00" y1="220.00" x2="166.00" y2="234.00" />
<line x1="166.00" y1="220.00" x2="176.00" y2="234.00" />
<line x1="176.00" y1="220.00" x2="186.00" y2="234.00" />
<line x1="186.00" y1="220.00" x2="196.00" y2="234.00" />
<line x1="196.00" y1="220.00" x2="206.00" y2="234.00" />
<line x1="206.00" y1="220.00" x2="216.00" y2="234.00" />
<line x1="216.00" y1="220.00" x2="226.00" y2="234.00" />
<line x1="226.00" y1="220.00" x2="236.00" y2="234.00" />
<line x1="236.00" y1="220.00" x2="246.00" y2="234.00" />
<line x1="246.00" y1="220.00" x2="256.00" y2="234.00" />
<line x1="256.00" y1="220.00" x2="266.00" y2="234.00" />
<line x1="266.00" y1="220.00" x2="276.00" y2="234.00" />
<line x1="276.00" y1="220.00" x2="286.00" y2="234.00" />
<line x1="286.00" y1="220.00" x2="296.00" y2="234.00" />
<line x1="296.00" y1="220.00" x2="306.00" y2="234.00" />
<line x1="306.00" y1="220.00" x2="316.00" y2="234.00" />
<line x1="316.00" y1="220.00" x2="326.00" y2="234.00" />
<line x1="326.00" y1="220.00" x2="336.00" y2="234.00" />
<line x1="336.00" y1="220.00" x2="346.00" y2="234.00" />
<line x1="346.00" y1="220.00" x2="356.00" y2="234.00" />
<line x1="356.00" y1="220.00" x2="366.00" y2="234.00" />
<line x1="366.00" y1="220.00" x2="376.00" y2="234.00" />
<line x1="376.00" y1="220.00" x2="386.00" y2="234.00" />
<line x1="386.00" y1="220.00" x2="396.00" y2="234.00" />
<line x1="396.00" y1="220.00" x2="406.00" y2="234.00" />
<line x1="406.00" y1="220.00" x2="416.00" y2="234.00" />
<line x1="416.00" y1="220.00" x2="426.00" y2="234.00" />
<rect x="120.00" y="332.00" width="90.00" height="48.00" />
<rect x="240.00" y="332.00" width="70.00" height="48.00" />
<rect x="330.00" y="332.00" width="80.00" height="48.00" />
<rect x="120.00" y="172.00" width="60.00" height="48.00" />
<rect x="220.00" y="172.00" width="100.00" height="48.00" />
<circle cx="170.00" cy="320.00" r="8.00" />
<line x1="170.00" y1="328.00" x2="170.00" y2="360.00" />
<line x1="170.00" y1="336.00" x2="158.00" y2="354.00" />
<line x1="170.00" y1="336.00" x2="182.00" y2="354.00" />
<circle cx="360.00" cy="320.00" r="8.00" />
<line x1="360.00" y1="328.00" x2="360.00" y2="360.00" />
<line x1="360.00" y1="336.00" x2="352.00" y2="354.00" />
<line x1="360.00" y1="336.00" x2="368.00" y2="354.00" />
<line x1="0.00" y1="96.00" x2="48.00" y2="96.00" />
<line x1="0.00" y1="380.00" x2="48.00" y2="380.00" />
<text x="256.00" y="60.00" font-family="serif" font-size="11" text-anchor="middle" fill="black" stroke="none">SECTION A–A</text>
</svg>
