<svg xmlns="http://www.w3.org/2000/svg" viewBox="0 0 512 512" fill="none" stroke="black" stroke-width="1.4" stroke-linecap="round" stroke-linejoin="round">
<rect x="48.00" y="64.00" width="416.00" height="384.00" />
<line x1="48.00" y1="224.00" x2="280.00" y2="224.00" />
<line x1="280.00" y1="64.00" x2="280.00" y2="448.00" />
<line x1="280.00" y1="320.00" x2="464.00" y2="320.00" />
<line x1="160.00" y1="224.00" x2="160.00" y2="448.00" />
<polyline points="138.00,224.00 138.27,219.82 139.09,215.72 140.44,211.75 142.29,208.00 144.61,204.52 147.37,201.37 150.52,198.61 154.00,196.29 157.75,194.44 161.72,193.09 165.82,192.27 170.00,192.00" />
<polyline points="280.00,198.00 284.18,198.27 288.28,199.09 292.25,200.44 296.00,202.29 299.48,204.61 302.63,207.37 305.39,210.52 307.71,214.00 309.56,217.75 310.91,221.72 311.73,225.82 312.00,230.00" />
<polyline points="348.00,320.00 348.27,315.82 349.09,311.72 350.44,307.75 352.29,304.00 354.61,300.52 357.37,297.37 360.52,294.61 364.00,292.29 367.75,290.44 371.72,289.09 375.82,288.27 380.00,288.00" />
<rect x="80.00" y="96.00" width="80.00" height="50.00" />
<rect x="80.00" y="156.00" width="80.00" height="50.00" />
<rect x="190.00" y="96.00" width="70.00" height="110.00" />
<rect x="310.00" y="96.00" width="130.00" height="80.00" />
<rect x="310.00" y="200.00" width="50.00" height="100.00" />
<rect x="370.00" y="200.00" width="50.00" height="100.00" />
<circle cx="380.00" cy="380.00" r="22.00" />
<rect x="80.00" y="260.00" width="60.00" height="60.00" />
<rect x="80.00" y="340.00" width="60.00" height="60.00" />
<rect x="180.00" y="260.00" width="80.00" height="50.00" />
<line x1="48.00" y1="30.00" x2="48.00" y2="50.00" />
<line x1="160.00" y1="30.00" x2="160.00" y2="50.00" />
<line x1="280.00" y1="30.00" x2="280.00" y2="50.00" />
<line x1="464.00" y1="30.00" x2="464.00" y2="50.00" />
<line x1="48.00" y1="40.00" x2="464.00" y2="40.00" />
<text x="256.00" y="26.00" font-family="serif" font-size="11" text-anchor="middle" fill="black" stroke="none">FLOOR PLAN — RESIDENCE</text>
</svg>
